<?xml version="1.0" encoding="UTF-8"?>
<svg width="60" height="60" viewBox="0 0 256 256" xmlns="http://www.w3.org/2000/svg">
    <defs>
        <linearGradient id="airflowGradient" x1="0%" y1="0%" x2="100%" y2="100%">
            <stop offset="0%" stop-color="#017CEE"/>
            <stop offset="100%" stop-color="#00C7D4"/>
        </linearGradient>
    </defs>
    <!-- Apache Airflow logo recreation -->
    <circle cx="128" cy="128" r="120" fill="url(#airflowGradient)" opacity="0.1"/>
    <path d="M64 128 L96 96 L128 128 L160 96 L192 128 L160 160 L128 128 L96 160 Z" fill="url(#airflowGradient)" opacity="0.8"/>
    <circle cx="64" cy="128" r="8" fill="url(#airflowGradient)"/>
    <circle cx="96" cy="96" r="8" fill="url(#airflowGradient)"/>
    <circle cx="128" cy="128" r="12" fill="url(#airflowGradient)"/>
    <circle cx="160" cy="96" r="8" fill="url(#airflowGradient)"/>
    <circle cx="192" cy="128" r="8" fill="url(#airflowGradient)"/>
    <circle cx="96" cy="160" r="8" fill="url(#airflowGradient)"/>
    <circle cx="160" cy="160" r="8" fill="url(#airflowGradient)"/>
    <!-- Flow arrows -->
    <path d="M88 104 L96 96 L104 104" fill="none" stroke="url(#airflowGradient)" stroke-width="3" stroke-linecap="round"/>
    <path d="M152 104 L160 96 L168 104" fill="none" stroke="url(#airflowGradient)" stroke-width="3" stroke-linecap="round"/>
    <path d="M88 152 L96 160 L104 152" fill="none" stroke="url(#airflowGradient)" stroke-width="3" stroke-linecap="round"/>
    <path d="M152 152 L160 160 L168 152" fill="none" stroke="url(#airflowGradient)" stroke-width="3" stroke-linecap="round"/>
</svg>
