<?xml version="1.0" encoding="UTF-8"?>
<svg width="60" height="60" viewBox="0 0 256 256" xmlns="http://www.w3.org/2000/svg">
    <defs>
        <linearGradient id="mssqlGradient" x1="0%" y1="0%" x2="100%" y2="100%">
            <stop offset="0%" stop-color="#CC2927"/>
            <stop offset="100%" stop-color="#E74C3C"/>
        </linearGradient>
    </defs>
    <!-- Microsoft SQL Server logo recreation -->
    <rect x="20" y="20" width="216" height="216" rx="20" fill="url(#mssqlGradient)" opacity="0.1"/>
    <!-- Database server icon -->
    <rect x="64" y="64" width="128" height="20" rx="10" fill="url(#mssqlGradient)"/>
    <rect x="64" y="96" width="128" height="20" rx="10" fill="url(#mssqlGradient)" opacity="0.8"/>
    <rect x="64" y="128" width="128" height="20" rx="10" fill="url(#mssqlGradient)" opacity="0.6"/>
    <rect x="64" y="160" width="128" height="20" rx="10" fill="url(#mssqlGradient)" opacity="0.4"/>
    <!-- SQL text representation -->
    <path d="M80 200 L80 210 L90 210 L90 205 L85 205 L85 200 Z M95 200 L95 210 L105 210 M110 200 L110 210 L120 200 L120 210" fill="none" stroke="url(#mssqlGradient)" stroke-width="2"/>
    <!-- Microsoft squares -->
    <rect x="200" y="40" width="12" height="12" fill="url(#mssqlGradient)"/>
    <rect x="215" y="40" width="12" height="12" fill="url(#mssqlGradient)" opacity="0.7"/>
    <rect x="200" y="55" width="12" height="12" fill="url(#mssqlGradient)" opacity="0.7"/>
    <rect x="215" y="55" width="12" height="12" fill="url(#mssqlGradient)" opacity="0.5"/>
</svg>
