<?xml version="1.0" encoding="UTF-8"?>
<svg width="60" height="60" viewBox="0 0 256 255" xmlns="http://www.w3.org/2000/svg">
    <defs>
        <linearGradient id="pyBlue" x1="0%" y1="0%" x2="0%" y2="100%">
            <stop offset="0%" stop-color="#5A9FD4"/>
            <stop offset="100%" stop-color="#306998"/>
        </linearGradient>
        <linearGradient id="pyYellow" x1="0%" y1="0%" x2="0%" y2="100%">
            <stop offset="0%" stop-color="#FFD43B"/>
            <stop offset="100%" stop-color="#FFE873"/>
        </linearGradient>
    </defs>
    <!-- Python logo recreation -->
    <path d="M126.916 0C57.668 0 52.906 28.828 52.906 28.828L52.925 59.938H128.109V70.531H28.828S0 65.769 0 126.916C0 188.063 28.828 195.047 28.828 195.047H59.938V157.084C59.938 157.084 58.487 128.256 89.103 128.256H140.697C140.697 128.256 167.969 128.791 167.969 101.519V30.281C167.969 30.281 174.953 0 126.916 0ZM92.802 19.375C99.426 19.375 104.781 24.73 104.781 31.354S99.426 43.334 92.802 43.334 80.823 38.013 80.823 31.354 86.178 19.375 92.802 19.375Z" fill="url(#pyBlue)"/>
    <path d="M129.084 255C198.332 255 203.094 226.172 203.094 226.172L203.075 195.062H127.891V184.469H227.172S256 189.231 256 128.084C256 66.937 227.172 59.953 227.172 59.953H196.062V97.916C196.062 97.916 197.513 126.744 166.897 126.744H115.303C115.303 126.744 88.031 126.209 88.031 153.481V224.719C88.031 224.719 81.047 255 129.084 255ZM163.198 235.625C156.574 235.625 151.219 230.27 151.219 223.646S156.574 211.666 163.198 211.666 175.177 216.987 175.177 223.646 169.822 235.625 163.198 235.625Z" fill="url(#pyYellow)"/>
</svg>
