<?xml version="1.0" encoding="UTF-8"?>
<svg width="60" height="60" viewBox="0 0 256 256" xmlns="http://www.w3.org/2000/svg">
    <defs>
        <linearGradient id="redshiftGradient" x1="0%" y1="0%" x2="100%" y2="100%">
            <stop offset="0%" stop-color="#FF9900"/>
            <stop offset="100%" stop-color="#FFB84D"/>
        </linearGradient>
    </defs>
    <!-- AWS Redshift logo recreation -->
    <rect x="20" y="20" width="216" height="216" rx="40" fill="url(#redshiftGradient)" opacity="0.1"/>
    <!-- Database cylinder -->
    <ellipse cx="128" cy="80" rx="60" ry="20" fill="url(#redshiftGradient)"/>
    <rect x="68" y="80" width="120" height="60" fill="url(#redshiftGradient)"/>
    <ellipse cx="128" cy="140" rx="60" ry="20" fill="url(#redshiftGradient)" opacity="0.8"/>
    <!-- Data flow arrows -->
    <path d="M40 160 L80 160 L75 155 M80 160 L75 165" fill="none" stroke="url(#redshiftGradient)" stroke-width="4" stroke-linecap="round"/>
    <path d="M176 160 L216 160 L211 155 M216 160 L211 165" fill="none" stroke="url(#redshiftGradient)" stroke-width="4" stroke-linecap="round"/>
    <!-- AWS cloud symbol -->
    <path d="M100 200 Q90 190 100 185 Q110 190 115 185 Q125 190 130 185 Q140 190 130 200 Z" fill="url(#redshiftGradient)" opacity="0.7"/>
</svg>
